<?xml version="1.0" encoding="UTF-8"?><svg id="Layer_2" xmlns="http://www.w3.org/2000/svg" width="305.56" height="207.98" viewBox="0 0 305.56 207.98"><defs><style>.cls-1{stroke-width:5px;}.cls-1,.cls-2,.cls-3{stroke:#1c75bc;stroke-miterlimit:10;}.cls-1,.cls-2,.cls-3,.cls-4{fill:#1c75bc;}.cls-2{stroke-width:6px;}.cls-3{stroke-width:2px;}</style></defs><path class="cls-2" d="m72.76,43.28c9.22,0,14.79,4.97,14.79,15.95s-5.56,15.95-14.79,15.95-14.71-5.02-14.71-15.95,5.49-15.95,14.71-15.95Zm0,30.46c8,0,12.73-4.41,12.73-14.51s-4.73-14.51-12.73-14.51-12.65,4.36-12.65,14.51,4.65,14.51,12.65,14.51Z"/><g><path class="cls-1" d="m195.55,31.28v26.72h11.85v2.32h-11.85v30.99h-2.4V28.96h23.02v2.32h-20.61Z"/><path class="cls-1" d="m235.37,28.96c12.11,0,18.7,5.97,18.7,17.63s-6.86,17.37-18.97,17.37h-7.75v27.34h-2.4V28.96h10.42Zm0,32.69c10.6,0,16.3-4.9,16.3-15.14,0-10.87-6.32-15.23-16.3-15.23h-8.02v30.37h8.02Z"/></g><g><path class="cls-1" d="m197.37,114.62h2.4v62.34h-2.4v-62.34Z"/><path class="cls-1" d="m230.8,114.4c12.11,0,18.7,5.97,18.7,17.63s-6.86,17.37-18.97,17.37h-7.75v27.34h-2.4v-62.34h10.42Zm0,32.69c10.6,0,16.3-4.9,16.3-15.14,0-10.87-6.32-15.23-16.3-15.23h-8.02v30.37h8.02Z"/></g><g><path class="cls-3" d="m136.35,27.47l-17.27,77.08c-5.61,24.83-13.6,64.34-13.82,64.99l-.41,1.65-8.23-.1-18.35-79.24h-5.47l.07,8.85h.43c.22.43,11.42,55.23,16.6,77.91h10.18s10.15,0,10.15,0L144.34,27.47h-7.99Z"/><path class="cls-3" d="m48.97,171.09l-8.23.1-.41-1.65c-.22-.65-8.21-40.16-13.82-64.99L9.24,27.47H1.25l34.12,151.14h20.32c5.18-22.67,16.38-77.47,16.6-77.91h.43l.07-8.85h-5.47l-18.35,79.24Z"/></g><rect class="cls-4" x="164.68" width="7.82" height="179.48"/></svg>